<svg xmlns="http://www.w3.org/2000/svg" width="128.086" height="128.086" viewBox="0 0 128.086 128.086">
  <rect width="90.129" height="91.012" rx="22" transform="translate(0 63.731) rotate(-45)" fill="#1e2c81"/>
  <g transform="translate(-154.174 -171.582)">
    <path d="M19,4A15,15,0,0,0,4,19V65A15,15,0,0,0,19,80H65A15,15,0,0,0,80,65V19A15,15,0,0,0,65,4H19m0-4H65A19,19,0,0,1,84,19V65A19,19,0,0,1,65,84H19A19,19,0,0,1,0,65V19A19,19,0,0,1,19,0Z" transform="translate(218.396 294.794) rotate(-135)" fill="#fff"/>
    <path d="M23.033-50.909h9.824v32.777a14.936,14.936,0,0,1-2.031,7.9,13.576,13.576,0,0,1-5.635,5.164,18.406,18.406,0,0,1-8.378,1.813,19.1,19.1,0,0,1-7.7-1.5A12.218,12.218,0,0,1,3.638-9.352a13.788,13.788,0,0,1-2-7.77h9.893a6.891,6.891,0,0,0,.769,3.179,4.978,4.978,0,0,0,2,2.02,6.174,6.174,0,0,0,3.018.7,5.781,5.781,0,0,0,3.11-.792,4.977,4.977,0,0,0,1.94-2.33,9.537,9.537,0,0,0,.666-3.787ZM56.8-3.212A17.927,17.927,0,0,1,47.558-5.5a15.435,15.435,0,0,1-6-6.381,20.487,20.487,0,0,1-2.112-9.514,20.592,20.592,0,0,1,2.112-9.56,15.435,15.435,0,0,1,6-6.381A17.927,17.927,0,0,1,56.8-39.616a17.927,17.927,0,0,1,9.239,2.284,15.435,15.435,0,0,1,6,6.381,20.592,20.592,0,0,1,2.112,9.56,20.487,20.487,0,0,1-2.112,9.514,15.435,15.435,0,0,1-6,6.381A17.927,17.927,0,0,1,56.8-3.212Zm.046-7.575a6.046,6.046,0,0,0,4.063-1.389,8.541,8.541,0,0,0,2.467-3.8,16.659,16.659,0,0,0,.838-5.486,16.659,16.659,0,0,0-.838-5.486,8.624,8.624,0,0,0-2.467-3.81,6.015,6.015,0,0,0-4.063-1.4,6.181,6.181,0,0,0-4.12,1.4,8.485,8.485,0,0,0-2.5,3.81,16.659,16.659,0,0,0-.838,5.486,16.659,16.659,0,0,0,.838,5.486,8.4,8.4,0,0,0,2.5,3.8A6.214,6.214,0,0,0,56.843-10.787Z" transform="translate(180.36 262.909)" fill="#fff"/>
  </g>
</svg>
