<svg xmlns="http://www.w3.org/2000/svg" width="40.269" height="40.178" viewBox="0 0 40.269 40.178">
  <path id="Path_50" data-name="Path 50" d="M23.346,14.064a31.247,31.247,0,0,1,6.873-2.478,28.54,28.54,0,0,1,4.769-.523c1.214-.038,1.643.179,1.985.507.634.611.8,1.666.8,4v13.3c0,.857-.3,1.792-2.455,2.408a41.462,41.462,0,0,1-8.259,1.23c-1.366.053-3.224-.417-3.984-1.628a20.122,20.122,0,0,1-3.184-11.109,6.923,6.923,0,0,1,3.453-5.7M52.23,33.571a.985.985,0,0,0,.71.9,1.4,1.4,0,0,0,1.275-.172A20.131,20.131,0,0,0,60.16,19.979a20.686,20.686,0,0,0-.832-5.719,2.933,2.933,0,0,0-1.07-1.482,2.171,2.171,0,0,0-1.836-.026c-3.2,1.039-6.059,1.988-7.666,1.988-1.278,0-4.248-1.26-5.5-1.817a1.1,1.1,0,0,0-1.109,0,1.119,1.119,0,0,0-.5,1.02v4.431a3.285,3.285,0,0,0,1.572,2.885c4.791,2.144,7.412,3.544,8.044,5.7a56.388,56.388,0,0,1,.958,6.615M40.054,40.179a20.041,20.041,0,0,0,6.678-1.15c1.9-.758,3.128-1.826,3.036-4.123a57.673,57.673,0,0,0-.876-6.763c-.288-.952-1.7-1.918-5.535-3.1a1.631,1.631,0,0,0-1.478.218,1.524,1.524,0,0,0-.571,1.119c-.129,3.166-.839,5.9-3.207,6.771-.605.225-1.246.424-1.912.6l-.007,0A31.218,31.218,0,0,1,30.345,34.8c-1.882.129-1.889,1.679-1.012,2.251a19.768,19.768,0,0,0,10.719,3.123M23.932,11.118A54.187,54.187,0,0,1,29.5,9.125a43.128,43.128,0,0,1,7.235-.7c1.948-.092,2.043-.843,2.043-2.36V2.238A2.45,2.45,0,0,0,38.193.4,1.982,1.982,0,0,0,36.576.039,20.109,20.109,0,0,0,22.549,9.914a1,1,0,0,0,.07,1.036,1.153,1.153,0,0,0,1.314.172m32.41-2.982A19.876,19.876,0,0,0,44.86.341c-1.724-.417-1.767,1.615-1.767,3.071,0,1.361-.012,2.236-.554,2.621-.588.419-1.165.182-1.2,1.64,0,.048,0,.1,0,.148,0,.782.258,1.342,1.644,2.086.707.38,2.034,1.042,3.026,1.458a9.363,9.363,0,0,0,2.75.816A25.824,25.824,0,0,0,55,10.878c1.031-.337,1.543-.739,1.683-1.184a2.03,2.03,0,0,0-.344-1.553" transform="translate(-19.891 -0.001)" fill="#0022f5"/>
</svg>
