<svg xmlns="http://www.w3.org/2000/svg" width="369.913" height="53.944" viewBox="0 0 369.913 53.944">
  <g transform="translate(-20 -20)">
    <g  transform="translate(12.028 -3.127)">
      <path d="M30.383,32.886,12.5,50.782,30.233,68.519a1.876,1.876,0,1,1-2.653,2.653L8.522,52.1a1.875,1.875,0,0,1,0-2.653L27.739,30.233a1.875,1.875,0,0,1,2.644,2.653ZM83.509,49.3,64.45,30.233A1.876,1.876,0,0,0,61.8,32.886L79.534,50.623l-17.9,17.9a1.876,1.876,0,1,0,2.653,2.653L83.509,51.954a1.875,1.875,0,0,0,0-2.653ZM57.457,23.277A1.875,1.875,0,0,0,55,24.261L33.58,74.453a1.877,1.877,0,1,0,3.45,1.481L58.451,25.743a1.875,1.875,0,0,0-.994-2.466Z" fill="#8dc6ff"/>
    </g>
    <g transform="translate(116.059 10.26)">
      <path d="M-.059,26.886H9.814l7.614,16,7.614-16h9.933L17.428,60.909ZM46.723,58.708a16.167,16.167,0,0,1-6.989-5.443q-2.915-3.837-2.915-10.023t2.944-9.993a16.4,16.4,0,0,1,7.049-5.413A21.4,21.4,0,0,1,54.6,26.231a18.216,18.216,0,0,1,8.149,1.9A15.895,15.895,0,0,1,71.675,42.47q0,1.547-.059,2.677a13.6,13.6,0,0,1-.119,1.428H45.682a6.105,6.105,0,0,0,3.569,4.7A13.407,13.407,0,0,0,54.6,52.522a9.773,9.773,0,0,0,5.115-1.16,15.046,15.046,0,0,0,3.271-2.647l6.9,3.985A17.948,17.948,0,0,1,54.6,60.314a21.441,21.441,0,0,1-7.881-1.606Zm1.814-22.871a6.423,6.423,0,0,0-2.617,4.431H62.277a6.373,6.373,0,0,0-1.19-2.974,7.935,7.935,0,0,0-6.543-3.271,9.468,9.468,0,0,0-6.008,1.814Zm45.92-.535a9.461,9.461,0,0,0-4.7,2.944q-2.141,2.32-2.141,6.781V59.482H78.754V26.767h8.863v4.342A10.926,10.926,0,0,1,93,27.153a17.517,17.517,0,0,1,5.8-.981v8.684A13.2,13.2,0,0,0,94.457,35.3Zm7.792,19.837,4.64-6.186a21.011,21.011,0,0,0,5,2.5,16.686,16.686,0,0,0,5.591,1.011,6.256,6.256,0,0,0,3.361-.833,2.425,2.425,0,0,0,1.338-2.082q0-1.249-1.517-1.755a17.145,17.145,0,0,0-2.944-.714l-1.844-.268a43.869,43.869,0,0,1-6.156-1.428,11.53,11.53,0,0,1-4.7-2.974,8.022,8.022,0,0,1-2.112-5.889q0-6.186,4.491-8.268a21.259,21.259,0,0,1,9.011-2.082,21.728,21.728,0,0,1,7.138,1.13,23.418,23.418,0,0,1,6.483,3.569l-4.64,6.067a28.3,28.3,0,0,0-4.58-2.2,13.486,13.486,0,0,0-4.7-.833,6.733,6.733,0,0,0-2.885.654,2,2,0,0,0-1.4,1.784q0,1.428,1.933,2.022a25.5,25.5,0,0,0,4.253.892,54.633,54.633,0,0,1,6.662,1.487A9.95,9.95,0,0,1,129.1,43.63a8.536,8.536,0,0,1,1.933,5.978,9.449,9.449,0,0,1-3.509,7.881q-3.509,2.766-9.933,2.766a23.88,23.88,0,0,1-15.346-5.115ZM162.92,56.21a9.426,9.426,0,0,1-3.9,2.766,14.8,14.8,0,0,1-6.037,1.219,16.559,16.559,0,0,1-8.774-2.26,14.925,14.925,0,0,1-5.68-6.156,18.96,18.96,0,0,1-1.963-8.655,18.96,18.96,0,0,1,1.963-8.655,14.925,14.925,0,0,1,5.68-6.156,16.559,16.559,0,0,1,8.774-2.26,14.485,14.485,0,0,1,5.978,1.16,10.009,10.009,0,0,1,3.956,2.944v-3.39h8.8V59.482h-8.8Zm-2.082-19.778a9.6,9.6,0,0,0-13.116,0,9.428,9.428,0,0,0-2.409,6.692,9.242,9.242,0,0,0,2.468,6.6,8.536,8.536,0,0,0,6.513,2.617,8.761,8.761,0,0,0,6.573-2.468,9.252,9.252,0,0,0,2.409-6.751,9.361,9.361,0,0,0-2.439-6.692Zm30.693,11.391a7.6,7.6,0,0,0,.714,3.48q.714,1.4,3.331,1.4a20.486,20.486,0,0,0,2.26-.119v7.495a36.234,36.234,0,0,1-3.985.238,24.7,24.7,0,0,1-6.156-.625,6.413,6.413,0,0,1-3.658-2.409,8.55,8.55,0,0,1-1.309-5.115V34.023h-3.985V26.231h3.985V17.488h8.8v8.744h6.543v7.792h-6.543v13.8Zm21.711-25.9a4.751,4.751,0,0,1-3.45,1.4,4.924,4.924,0,0,1-3.539-1.4A4.557,4.557,0,0,1,204.8,18.5a4.491,4.491,0,0,1,1.457-3.361,4.924,4.924,0,0,1,3.539-1.4,4.751,4.751,0,0,1,3.45,1.4,4.535,4.535,0,0,1,1.428,3.361A4.6,4.6,0,0,1,213.242,21.919Zm-7.911,4.907h8.922V59.482H205.33Zm17.785-12.313h8.922V59.482h-8.922ZM248.9,58.708a16.167,16.167,0,0,1-6.989-5.443Q239,49.429,239,43.243t2.944-9.993a16.4,16.4,0,0,1,7.049-5.413,21.4,21.4,0,0,1,7.792-1.606,18.216,18.216,0,0,1,8.149,1.9,15.895,15.895,0,0,1,8.922,14.335q0,1.547-.059,2.677a13.594,13.594,0,0,1-.119,1.428H247.86a6.105,6.105,0,0,0,3.569,4.7,13.407,13.407,0,0,0,5.353,1.249,9.773,9.773,0,0,0,5.115-1.16,15.046,15.046,0,0,0,3.271-2.647l6.9,3.985a17.948,17.948,0,0,1-15.287,7.614A21.441,21.441,0,0,1,248.9,58.708Zm1.814-22.871a6.423,6.423,0,0,0-2.617,4.431h16.357a6.373,6.373,0,0,0-1.19-2.974,7.935,7.935,0,0,0-6.543-3.271,9.468,9.468,0,0,0-6.008,1.814Z" fill="#22313f"/>
    </g>
  </g>
</svg>
